<?xml version="1.0" encoding="UTF-8"?>
<!DOCTYPE svg PUBLIC "-//W3C//DTD SVG 1.1//EN" "http://www.w3.org/Graphics/SVG/1.1/DTD/svg11.dtd">
<svg xmlns="http://www.w3.org/2000/svg" version="1.1" width="400px" height="400px" style="shape-rendering:geometricPrecision; text-rendering:geometricPrecision; image-rendering:optimizeQuality; fill-rule:evenodd; clip-rule:evenodd" xmlns:xlink="http://www.w3.org/1999/xlink">
<g><path style="opacity:1" fill="#000000" d="M -0.5,-0.5 C 132.833,-0.5 266.167,-0.5 399.5,-0.5C 399.5,132.833 399.5,266.167 399.5,399.5C 266.167,399.5 132.833,399.5 -0.5,399.5C -0.5,266.167 -0.5,132.833 -0.5,-0.5 Z"/></g>
<g><path style="opacity:1" fill="#f7c500" d="M 53.5,170.5 C 75.4977,167.998 85.331,177.665 83,199.5C 75.4821,214.827 63.9821,218.661 48.5,211C 40.6802,204.241 37.8468,195.741 40,185.5C 41.4131,182.339 43.0797,179.339 45,176.5C 47.7361,174.248 50.5695,172.248 53.5,170.5 Z"/></g>
<g><path style="opacity:1" fill="#f7c500" d="M 267.5,170.5 C 290.855,169.019 300.021,179.686 295,202.5C 286.479,215.14 275.312,217.974 261.5,211C 251.773,201.921 249.939,191.421 256,179.5C 259.183,175.462 263.016,172.462 267.5,170.5 Z"/></g>
<g><path style="opacity:1" fill="#f6c500" d="M 13.5,197.5 C 12.5119,202.64 12.1786,207.974 12.5,213.5C 9.83333,213.5 7.16667,213.5 4.5,213.5C 4.5,199.167 4.5,184.833 4.5,170.5C 11.175,170.334 17.8417,170.5 24.5,171C 35.691,177 37.3577,185 29.5,195C 24.4053,197.177 19.072,198.01 13.5,197.5 Z"/></g>
<g><path style="opacity:1" fill="#f4c300" d="M 87.5,170.5 C 90.8984,170.18 94.2317,170.513 97.5,171.5C 100.431,178.46 103.264,185.46 106,192.5C 108.347,185.29 111.18,178.29 114.5,171.5C 117.604,178.042 120.437,184.709 123,191.5C 126.091,184.979 128.925,178.313 131.5,171.5C 134.833,170.167 138.167,170.167 141.5,171.5C 135.833,185.5 130.167,199.5 124.5,213.5C 123.726,214.711 122.893,214.711 122,213.5C 119.495,207.825 116.995,202.158 114.5,196.5C 111.598,202.301 109.264,208.301 107.5,214.5C 105.876,214.64 104.71,213.973 104,212.5C 98.3954,198.516 92.8954,184.516 87.5,170.5 Z"/></g>
<g><path style="opacity:1" fill="#c49c00" d="M 167.5,179.5 C 167.5,176.833 167.5,174.167 167.5,171.5C 160.833,171.5 154.167,171.5 147.5,171.5C 147.5,185.5 147.5,199.5 147.5,213.5C 147.167,213.5 146.833,213.5 146.5,213.5C 146.5,199.167 146.5,184.833 146.5,170.5C 153.833,170.5 161.167,170.5 168.5,170.5C 168.81,173.713 168.477,176.713 167.5,179.5 Z"/></g>
<g><path style="opacity:1" fill="#fdcb00" d="M 167.5,179.5 C 163.5,179.5 159.5,179.5 155.5,179.5C 155.5,182.5 155.5,185.5 155.5,188.5C 159.167,188.5 162.833,188.5 166.5,188.5C 166.5,191.167 166.5,193.833 166.5,196.5C 162.833,196.5 159.167,196.5 155.5,196.5C 155.5,199.5 155.5,202.5 155.5,205.5C 159.833,205.5 164.167,205.5 168.5,205.5C 168.5,208.167 168.5,210.833 168.5,213.5C 161.5,213.5 154.5,213.5 147.5,213.5C 147.5,199.5 147.5,185.5 147.5,171.5C 154.167,171.5 160.833,171.5 167.5,171.5C 167.5,174.167 167.5,176.833 167.5,179.5 Z"/></g>
<g><path style="opacity:1" fill="#776000" d="M 197.5,171.5 C 190.833,171.5 184.167,171.5 177.5,171.5C 177.5,185.5 177.5,199.5 177.5,213.5C 180.167,213.5 182.833,213.5 185.5,213.5C 182.713,214.477 179.713,214.81 176.5,214.5C 176.5,199.833 176.5,185.167 176.5,170.5C 183.687,170.175 190.687,170.509 197.5,171.5 Z"/></g>
<g><path style="opacity:1" fill="#fbc900" d="M 197.5,171.5 C 201.362,172.524 204.195,174.857 206,178.5C 208.24,186.641 205.74,192.641 198.5,196.5C 201.512,201.861 204.512,207.194 207.5,212.5C 204.713,213.477 201.713,213.81 198.5,213.5C 195.608,208.72 192.941,203.72 190.5,198.5C 188.955,197.548 187.288,197.215 185.5,197.5C 185.5,202.833 185.5,208.167 185.5,213.5C 182.833,213.5 180.167,213.5 177.5,213.5C 177.5,199.5 177.5,185.5 177.5,171.5C 184.167,171.5 190.833,171.5 197.5,171.5 Z"/></g>
<g><path style="opacity:1" fill="#745d00" d="M 222.5,170.5 C 222.5,170.833 222.5,171.167 222.5,171.5C 219.833,171.5 217.167,171.5 214.5,171.5C 214.5,185.5 214.5,199.5 214.5,213.5C 217.167,213.5 219.833,213.5 222.5,213.5C 219.713,214.477 216.713,214.81 213.5,214.5C 213.5,199.833 213.5,185.167 213.5,170.5C 216.5,170.5 219.5,170.5 222.5,170.5 Z"/></g>
<g><path style="opacity:1" fill="#fecb00" d="M 222.5,171.5 C 222.5,177.167 222.5,182.833 222.5,188.5C 227.032,188.818 231.366,188.485 235.5,187.5C 235.5,182.167 235.5,176.833 235.5,171.5C 238.167,171.5 240.833,171.5 243.5,171.5C 243.5,185.5 243.5,199.5 243.5,213.5C 240.833,213.5 238.167,213.5 235.5,213.5C 235.5,208.167 235.5,202.833 235.5,197.5C 231.366,196.515 227.032,196.182 222.5,196.5C 222.5,202.167 222.5,207.833 222.5,213.5C 219.833,213.5 217.167,213.5 214.5,213.5C 214.5,199.5 214.5,185.5 214.5,171.5C 217.167,171.5 219.833,171.5 222.5,171.5 Z"/></g>
<g><path style="opacity:1" fill="#423502" d="M 222.5,170.5 C 223.489,175.975 223.822,181.642 223.5,187.5C 227.5,187.5 231.5,187.5 235.5,187.5C 231.366,188.485 227.032,188.818 222.5,188.5C 222.5,182.833 222.5,177.167 222.5,171.5C 222.5,171.167 222.5,170.833 222.5,170.5 Z"/></g>
<g><path style="opacity:1" fill="#ae8c00" d="M 235.5,171.5 C 238.287,170.523 241.287,170.19 244.5,170.5C 244.5,185.167 244.5,199.833 244.5,214.5C 241.287,214.81 238.287,214.477 235.5,213.5C 238.167,213.5 240.833,213.5 243.5,213.5C 243.5,199.5 243.5,185.5 243.5,171.5C 240.833,171.5 238.167,171.5 235.5,171.5 Z"/></g>
<g><path style="opacity:1" fill="#8e7100" d="M 325.5,171.5 C 318.833,171.5 312.167,171.5 305.5,171.5C 305.5,185.5 305.5,199.5 305.5,213.5C 308.167,213.5 310.833,213.5 313.5,213.5C 310.713,214.477 307.713,214.81 304.5,214.5C 304.5,199.833 304.5,185.167 304.5,170.5C 311.687,170.175 318.687,170.509 325.5,171.5 Z"/></g>
<g><path style="opacity:1" fill="#fbc900" d="M 325.5,171.5 C 334.433,175.074 336.933,181.407 333,190.5C 331.581,193.296 329.415,195.296 326.5,196.5C 329.512,201.861 332.512,207.194 335.5,212.5C 332.713,213.477 329.713,213.81 326.5,213.5C 323.694,208.563 320.861,203.563 318,198.5C 316.644,197.62 315.144,197.286 313.5,197.5C 313.5,202.833 313.5,208.167 313.5,213.5C 310.833,213.5 308.167,213.5 305.5,213.5C 305.5,199.5 305.5,185.5 305.5,171.5C 312.167,171.5 318.833,171.5 325.5,171.5 Z"/></g>
<g><path style="opacity:1" fill="#f3c200" d="M 349.5,170.5 C 354.203,170.437 358.87,170.771 363.5,171.5C 363.492,174.545 363.159,177.545 362.5,180.5C 358.537,179.56 354.537,179.393 350.5,180C 349.018,182.592 349.352,184.925 351.5,187C 359.487,188.659 364.487,193.326 366.5,201C 365.838,209.995 361.005,214.495 352,214.5C 347.872,214.624 344.039,213.624 340.5,211.5C 339.382,208.398 339.716,205.398 341.5,202.5C 345.809,205.257 350.475,206.091 355.5,205C 358.167,202.667 358.167,200.333 355.5,198C 344.777,195.639 339.944,189.139 341,178.5C 343.074,174.923 345.907,172.256 349.5,170.5 Z"/></g>
<g><path style="opacity:1" fill="#c49c00" d="M 394.5,179.5 C 394.5,176.833 394.5,174.167 394.5,171.5C 387.833,171.5 381.167,171.5 374.5,171.5C 374.5,185.5 374.5,199.5 374.5,213.5C 374.167,213.5 373.833,213.5 373.5,213.5C 373.5,199.167 373.5,184.833 373.5,170.5C 380.833,170.5 388.167,170.5 395.5,170.5C 395.81,173.713 395.477,176.713 394.5,179.5 Z"/></g>
<g><path style="opacity:1" fill="#fdcb00" d="M 394.5,179.5 C 390.5,179.5 386.5,179.5 382.5,179.5C 382.5,182.5 382.5,185.5 382.5,188.5C 386.167,188.5 389.833,188.5 393.5,188.5C 393.5,191.167 393.5,193.833 393.5,196.5C 389.833,196.5 386.167,196.5 382.5,196.5C 382.5,199.5 382.5,202.5 382.5,205.5C 386.833,205.5 391.167,205.5 395.5,205.5C 395.5,208.167 395.5,210.833 395.5,213.5C 388.5,213.5 381.5,213.5 374.5,213.5C 374.5,199.5 374.5,185.5 374.5,171.5C 381.167,171.5 387.833,171.5 394.5,171.5C 394.5,174.167 394.5,176.833 394.5,179.5 Z"/></g>
<g><path style="opacity:1" fill="#0e0a01" d="M 13.5,179.5 C 16.5184,179.335 19.5184,179.502 22.5,180C 25.1667,183 25.1667,186 22.5,189C 19.5184,189.498 16.5184,189.665 13.5,189.5C 13.5,186.167 13.5,182.833 13.5,179.5 Z"/></g>
<g><path style="opacity:1" fill="#060400" d="M 56.5,179.5 C 70.498,178.656 75.998,184.99 73,198.5C 69.3449,205.07 63.8449,207.237 56.5,205C 45.8735,196.467 45.8735,187.967 56.5,179.5 Z"/></g>
<g><path style="opacity:1" fill="#060400" d="M 186.5,179.5 C 189.518,179.335 192.518,179.502 195.5,180C 197.396,181.808 197.896,183.975 197,186.5C 196.583,187.756 195.75,188.423 194.5,188.5C 191.833,188.5 189.167,188.5 186.5,188.5C 186.5,185.5 186.5,182.5 186.5,179.5 Z"/></g>
<g><path style="opacity:1" fill="#070400" d="M 269.5,179.5 C 282.324,177.497 288.157,182.83 287,195.5C 284.247,204.099 278.414,207.266 269.5,205C 258.864,196.423 258.864,187.923 269.5,179.5 Z"/></g>
<g><path style="opacity:1" fill="#120d01" d="M 313.5,179.5 C 317.584,179.043 321.417,179.71 325,181.5C 326.036,184.68 325.203,187.18 322.5,189C 319.518,189.498 316.518,189.665 313.5,189.5C 313.5,186.167 313.5,182.833 313.5,179.5 Z"/></g>
<g><path style="opacity:1" fill="#504001" d="M 186.5,179.5 C 186.5,182.5 186.5,185.5 186.5,188.5C 189.167,188.5 191.833,188.5 194.5,188.5C 191.713,189.477 188.713,189.81 185.5,189.5C 185.187,185.958 185.521,182.625 186.5,179.5 Z"/></g>
<g><path style="opacity:1" fill="#a58500" d="M 13.5,197.5 C 13.5,203.167 13.5,208.833 13.5,214.5C 10.2869,214.81 7.2869,214.477 4.5,213.5C 7.16667,213.5 9.83333,213.5 12.5,213.5C 12.1786,207.974 12.5119,202.64 13.5,197.5 Z"/></g>
<g><path style="opacity:1" fill="#3c3000" d="M 235.5,197.5 C 231.5,197.5 227.5,197.5 223.5,197.5C 223.821,203.026 223.488,208.36 222.5,213.5C 222.5,207.833 222.5,202.167 222.5,196.5C 227.032,196.182 231.366,196.515 235.5,197.5 Z"/></g>
<g><path style="opacity:1" fill="#7c6300" d="M 168.5,205.5 C 169.477,208.287 169.81,211.287 169.5,214.5C 161.648,214.825 153.982,214.492 146.5,213.5C 146.833,213.5 147.167,213.5 147.5,213.5C 154.5,213.5 161.5,213.5 168.5,213.5C 168.5,210.833 168.5,208.167 168.5,205.5 Z"/></g>
<g><path style="opacity:1" fill="#775f00" d="M 207.5,212.5 C 208.043,212.56 208.376,212.893 208.5,213.5C 205.02,214.806 201.687,214.806 198.5,213.5C 201.713,213.81 204.713,213.477 207.5,212.5 Z"/></g>
<g><path style="opacity:1" fill="#735d01" d="M 335.5,212.5 C 336.043,212.56 336.376,212.893 336.5,213.5C 333.02,214.806 329.687,214.806 326.5,213.5C 329.713,213.81 332.713,213.477 335.5,212.5 Z"/></g>
<g><path style="opacity:1" fill="#7c6300" d="M 395.5,205.5 C 396.477,208.287 396.81,211.287 396.5,214.5C 388.648,214.825 380.982,214.492 373.5,213.5C 373.833,213.5 374.167,213.5 374.5,213.5C 381.5,213.5 388.5,213.5 395.5,213.5C 395.5,210.833 395.5,208.167 395.5,205.5 Z"/></g>
</svg>
